<mxfile host="app.diagrams.net" modified="2022-03-24T03:18:31.093Z" agent="5.0 (Windows NT 10.0; Win64; x64) AppleWebKit/537.36 (KHTML, like Gecko) Chrome/99.0.4844.74 Safari/537.36" etag="hr1uBWJDcX453qmj3QuA" version="17.2.1" type="github">
  <diagram id="PB9f_y1UPzDf5dUsfriG" name="Page-1">
    <mxGraphModel dx="1038" dy="571" grid="1" gridSize="10" guides="1" tooltips="1" connect="1" arrows="1" fold="1" page="1" pageScale="1" pageWidth="827" pageHeight="1169" math="0" shadow="0">
      <root>
        <mxCell id="0" />
        <mxCell id="1" parent="0" />
        <mxCell id="dy8wC0OUVGFygrcAVv7o-1" value="Preprocessor" style="rounded=0;whiteSpace=wrap;html=1;" vertex="1" parent="1">
          <mxGeometry x="200" y="110" width="190" height="30" as="geometry" />
        </mxCell>
        <mxCell id="dy8wC0OUVGFygrcAVv7o-2" value="LanguageConverter" style="rounded=0;whiteSpace=wrap;html=1;" vertex="1" parent="1">
          <mxGeometry x="200" y="170" width="190" height="30" as="geometry" />
        </mxCell>
        <mxCell id="dy8wC0OUVGFygrcAVv7o-3" value="SymbolDetector" style="rounded=0;whiteSpace=wrap;html=1;" vertex="1" parent="1">
          <mxGeometry x="200" y="230" width="190" height="30" as="geometry" />
        </mxCell>
      </root>
    </mxGraphModel>
  </diagram>
</mxfile>
